# Wavefront OBJ file automatically generated by Tiled2Unity

# Vertices (Count = 271)
v -1020 -840 0
v -1080 -840 0
v -1080 -780 0
v -1020 -780 0
v -960 -840 0
v -960 -780 0
v -900 -840 0
v -900 -780 0
v -840 -840 0
v -840 -780 0
v -780 -840 0
v -780 -780 0
v -720 -840 0
v -720 -780 0
v -660 -840 0
v -660 -780 0
v -600 -840 0
v -600 -780 0
v -540 -840 0
v -540 -780 0
v -480 -840 0
v -480 -780 0
v -420 -840 0
v -420 -780 0
v -360 -840 0
v -360 -780 0
v -300 -840 0
v -300 -780 0
v -240 -840 0
v -240 -780 0
v -180 -840 0
v -180 -780 0
v -120 -840 0
v -120 -780 0
v -60 -840 0
v -60 -780 0
v 0 -840 0
v 0 -780 0
v -1080 -720 0
v -1020 -720 0
v -960 -720 0
v -900 -720 0
v -840 -720 0
v -780 -720 0
v -720 -720 0
v -660 -720 0
v -600 -720 0
v -540 -720 0
v -480 -720 0
v -420 -720 0
v -360 -720 0
v -300 -720 0
v -240 -720 0
v -180 -720 0
v -120 -720 0
v -60 -720 0
v 0 -720 0
v -1080 -660 0
v -1020 -660 0
v -960 -660 0
v -900 -660 0
v -840 -660 0
v -780 -660 0
v -720 -660 0
v -660 -660 0
v -600 -660 0
v -540 -660 0
v -480 -660 0
v -420 -660 0
v -360 -660 0
v -300 -660 0
v -240 -660 0
v -180 -660 0
v -120 -660 0
v -60 -660 0
v 0 -660 0
v -1080 -600 0
v -1020 -600 0
v -960 -600 0
v -900 -600 0
v -840 -600 0
v -780 -600 0
v -720 -600 0
v -660 -600 0
v -600 -600 0
v -540 -600 0
v -480 -600 0
v -420 -600 0
v -360 -600 0
v -300 -600 0
v -240 -600 0
v -180 -600 0
v -120 -600 0
v -60 -600 0
v 0 -600 0
v -1080 -540 0
v -1020 -540 0
v -960 -540 0
v -900 -540 0
v -840 -540 0
v -780 -540 0
v -720 -540 0
v -660 -540 0
v -600 -540 0
v -540 -540 0
v -480 -540 0
v -420 -540 0
v -360 -540 0
v -300 -540 0
v -240 -540 0
v -180 -540 0
v -120 -540 0
v -60 -540 0
v 0 -540 0
v -1080 -480 0
v -1020 -480 0
v -960 -480 0
v -900 -480 0
v -840 -480 0
v -780 -480 0
v -720 -480 0
v -660 -480 0
v -600 -480 0
v -540 -480 0
v -480 -480 0
v -420 -480 0
v -360 -480 0
v -300 -480 0
v -240 -480 0
v -180 -480 0
v -120 -480 0
v -60 -480 0
v 0 -480 0
v -1080 -420 0
v -1020 -420 0
v -960 -420 0
v -900 -420 0
v -840 -420 0
v -780 -420 0
v -720 -420 0
v -660 -420 0
v -600 -420 0
v -540 -420 0
v -480 -420 0
v -420 -420 0
v -360 -420 0
v -300 -420 0
v -240 -420 0
v -180 -420 0
v -120 -420 0
v -60 -420 0
v 0 -420 0
v -1080 -360 0
v -1020 -360 0
v -960 -360 0
v -900 -360 0
v -840 -360 0
v -780 -360 0
v -720 -360 0
v -660 -360 0
v -600 -360 0
v -540 -360 0
v -480 -360 0
v -420 -360 0
v -360 -360 0
v -300 -360 0
v -240 -360 0
v -180 -360 0
v -120 -360 0
v -60 -360 0
v 0 -360 0
v -1080 -300 0
v -1020 -300 0
v -960 -300 0
v -900 -300 0
v -840 -300 0
v -780 -300 0
v -720 -300 0
v -660 -300 0
v -600 -300 0
v -540 -300 0
v -480 -300 0
v -420 -300 0
v -360 -300 0
v -300 -300 0
v -240 -300 0
v -180 -300 0
v -120 -300 0
v -60 -300 0
v 0 -300 0
v -1080 -240 0
v -1020 -240 0
v -960 -240 0
v -900 -240 0
v -840 -240 0
v -780 -240 0
v -720 -240 0
v -660 -240 0
v -600 -240 0
v -540 -240 0
v -480 -240 0
v -420 -240 0
v -360 -240 0
v -300 -240 0
v -240 -240 0
v -180 -240 0
v -120 -240 0
v -60 -240 0
v 0 -240 0
v -1080 -180 0
v -1020 -180 0
v -960 -180 0
v -900 -180 0
v -840 -180 0
v -780 -180 0
v -720 -180 0
v -660 -180 0
v -600 -180 0
v -540 -180 0
v -480 -180 0
v -420 -180 0
v -360 -180 0
v -300 -180 0
v -240 -180 0
v -180 -180 0
v -120 -180 0
v -60 -180 0
v 0 -180 0
v -1080 -120 0
v -1020 -120 0
v -960 -120 0
v -900 -120 0
v -840 -120 0
v -780 -120 0
v -720 -120 0
v -660 -120 0
v -600 -120 0
v -540 -120 0
v -480 -120 0
v -420 -120 0
v -360 -120 0
v -300 -120 0
v -240 -120 0
v -180 -120 0
v -120 -120 0
v -60 -120 0
v 0 -120 0
v -1080 -60 0
v -1020 -60 0
v -960 -60 0
v -900 -60 0
v -840 -60 0
v -780 -60 0
v -720 -60 0
v -660 -60 0
v -600 -60 0
v -540 -60 0
v -480 -60 0
v -420 -60 0
v -360 -60 0
v -300 -60 0
v -240 -60 0
v -180 -60 0
v -120 -60 0
v -60 -60 0
v 0 -60 0
v -840 0 0
v -780 0 0
v -720 0 0
v -660 0 0
v -600 0 0

# Texture Coorindates (Count = 114)
vt 0.6667888 0.4001221
vt 0.9998779 0.4001221
vt 0.9998779 0.599878
vt 0.6667888 0.599878
vt 0.3334554 0.4001221
vt 0.6665446 0.4001221
vt 0.6665446 0.599878
vt 0.3334554 0.599878
vt 0.0001220703 0.4001221
vt 0.3332113 0.4001221
vt 0.3332113 0.599878
vt 0.0001220703 0.599878
vt 0.6667888 0.0001220703
vt 0.9998779 0.0001220703
vt 0.9998779 0.2498779
vt 0.6667888 0.2498779
vt 0.3334554 0.0001220703
vt 0.6665446 0.0001220703
vt 0.6665446 0.2498779
vt 0.3334554 0.2498779
vt 0.0001220703 0.0001220703
vt 0.3332113 0.0001220703
vt 0.3332113 0.2498779
vt 0.0001220703 0.2498779
vt 0.6667888 0.2501221
vt 0.9998779 0.2501221
vt 0.9998779 0.4998779
vt 0.6667888 0.4998779
vt 0.3334554 0.2501221
vt 0.6665446 0.2501221
vt 0.6665446 0.4998779
vt 0.3334554 0.4998779
vt 0.0001220703 0.2501221
vt 0.3332113 0.2501221
vt 0.3332113 0.4998779
vt 0.0001220703 0.4998779
vt 0.6667888 0.5001221
vt 0.9998779 0.5001221
vt 0.9998779 0.7498779
vt 0.6667888 0.7498779
vt 0.3334554 0.5001221
vt 0.6665446 0.5001221
vt 0.6665446 0.7498779
vt 0.3334554 0.7498779
vt 0.0001220703 0.5001221
vt 0.3332113 0.5001221
vt 0.3332113 0.7498779
vt 0.0001220703 0.7498779
vt 0.6667888 0.6001221
vt 0.9998779 0.6001221
vt 0.9998779 0.7998779
vt 0.6667888 0.7998779
vt 0.3334554 0.6001221
vt 0.6665446 0.6001221
vt 0.6665446 0.7998779
vt 0.3334554 0.7998779
vt 0.6667888 0.7501221
vt 0.9998779 0.7501221
vt 0.9998779 0.9998779
vt 0.6667888 0.9998779
vt 0.3334554 0.7501221
vt 0.6665446 0.7501221
vt 0.6665446 0.9998779
vt 0.3334554 0.9998779
vt 0.0001220703 0.7501221
vt 0.3332113 0.7501221
vt 0.3332113 0.9998779
vt 0.0001220703 0.9998779
vt 0.0001220703 0.6001221
vt 0.3332113 0.6001221
vt 0.3332113 0.7998779
vt 0.0001220703 0.7998779
vt 0.6667888 0.8001221
vt 0.9998779 0.8001221
vt 0.3334554 0.8001221
vt 0.6665446 0.8001221
vt 0.0001220703 0.8001221
vt 0.3332113 0.8001221
vt 0.9998779 0.3332113
vt 0.6667888 0.3332113
vt 0.6665446 0.3332113
vt 0.3334554 0.3332113
vt 0.5001221 0.0001220703
vt 0.5001221 0.3332113
vt 0.4998779 0.0001220703
vt 0.4998779 0.3332113
vt 0.0001220703 0.3332113
vt 0.3332113 0.3332113
vt 0.6667888 0.3334554
vt 0.9998779 0.3334554
vt 0.9998779 0.6665446
vt 0.6667888 0.6665446
vt 0.3334554 0.3334554
vt 0.6665446 0.3334554
vt 0.6665446 0.6665446
vt 0.3334554 0.6665446
vt 0.5001221 0.3334554
vt 0.5001221 0.6665446
vt 0.0001220703 0.3334554
vt 0.4998779 0.3334554
vt 0.4998779 0.6665446
vt 0.0001220703 0.6665446
vt 0.3332113 0.3334554
vt 0.3332113 0.6665446
vt 0.6667888 0.6667888
vt 0.9998779 0.6667888
vt 0.3334554 0.6667888
vt 0.6665446 0.6667888
vt 0.5001221 0.6667888
vt 0.5001221 0.9998779
vt 0.0001220703 0.6667888
vt 0.4998779 0.6667888
vt 0.4998779 0.9998779
vt 0.3332113 0.6667888

# Normal
vn 0 0 -1

# Groups (Count = 5)
g mesh_[00]_[03]
f  1/1/1  2/2/1  3/3/1  4/4/1 
f  5/5/1  1/6/1  4/7/1  6/8/1 
f  7/5/1  5/6/1  6/7/1  8/8/1 
f  9/5/1  7/6/1  8/7/1  10/8/1 
f  11/5/1  9/6/1  10/7/1  12/8/1 
f  13/5/1  11/6/1  12/7/1  14/8/1 
f  15/5/1  13/6/1  14/7/1  16/8/1 
f  17/5/1  15/6/1  16/7/1  18/8/1 
f  19/5/1  17/6/1  18/7/1  20/8/1 
f  21/5/1  19/6/1  20/7/1  22/8/1 
f  23/5/1  21/6/1  22/7/1  24/8/1 
f  25/5/1  23/6/1  24/7/1  26/8/1 
f  27/5/1  25/6/1  26/7/1  28/8/1 
f  29/5/1  27/6/1  28/7/1  30/8/1 
f  31/5/1  29/6/1  30/7/1  32/8/1 
f  33/5/1  31/6/1  32/7/1  34/8/1 
f  35/5/1  33/6/1  34/7/1  36/8/1 
f  37/9/1  35/10/1  36/11/1  38/12/1 
f  4/1/1  3/2/1  39/3/1  40/4/1 
f  6/5/1  4/6/1  40/7/1  41/8/1 
f  8/5/1  6/6/1  41/7/1  42/8/1 
f  10/5/1  8/6/1  42/7/1  43/8/1 
f  12/5/1  10/6/1  43/7/1  44/8/1 
f  14/5/1  12/6/1  44/7/1  45/8/1 
f  16/5/1  14/6/1  45/7/1  46/8/1 
f  18/5/1  16/6/1  46/7/1  47/8/1 
f  20/5/1  18/6/1  47/7/1  48/8/1 
f  22/5/1  20/6/1  48/7/1  49/8/1 
f  24/5/1  22/6/1  49/7/1  50/8/1 
f  26/5/1  24/6/1  50/7/1  51/8/1 
f  28/5/1  26/6/1  51/7/1  52/8/1 
f  30/5/1  28/6/1  52/7/1  53/8/1 
f  32/5/1  30/6/1  53/7/1  54/8/1 
f  34/5/1  32/6/1  54/7/1  55/8/1 
f  36/5/1  34/6/1  55/7/1  56/8/1 
f  38/9/1  36/10/1  56/11/1  57/12/1 
f  40/1/1  39/2/1  58/3/1  59/4/1 
f  41/5/1  40/6/1  59/7/1  60/8/1 
f  42/5/1  41/6/1  60/7/1  61/8/1 
f  43/5/1  42/6/1  61/7/1  62/8/1 
f  44/5/1  43/6/1  62/7/1  63/8/1 
f  45/5/1  44/6/1  63/7/1  64/8/1 
f  46/5/1  45/6/1  64/7/1  65/8/1 
f  47/5/1  46/6/1  65/7/1  66/8/1 
f  48/5/1  47/6/1  66/7/1  67/8/1 
f  49/5/1  48/6/1  67/7/1  68/8/1 
f  50/5/1  49/6/1  68/7/1  69/8/1 
f  51/5/1  50/6/1  69/7/1  70/8/1 
f  52/5/1  51/6/1  70/7/1  71/8/1 
f  53/5/1  52/6/1  71/7/1  72/8/1 
f  54/5/1  53/6/1  72/7/1  73/8/1 
f  55/5/1  54/6/1  73/7/1  74/8/1 
f  56/5/1  55/6/1  74/7/1  75/8/1 
f  57/9/1  56/10/1  75/11/1  76/12/1 
f  59/1/1  58/2/1  77/3/1  78/4/1 
f  60/5/1  59/6/1  78/7/1  79/8/1 
f  61/5/1  60/6/1  79/7/1  80/8/1 
f  62/5/1  61/6/1  80/7/1  81/8/1 
f  63/5/1  62/6/1  81/7/1  82/8/1 
f  64/5/1  63/6/1  82/7/1  83/8/1 
f  65/5/1  64/6/1  83/7/1  84/8/1 
f  66/5/1  65/6/1  84/7/1  85/8/1 
f  67/5/1  66/6/1  85/7/1  86/8/1 
f  68/5/1  67/6/1  86/7/1  87/8/1 
f  69/5/1  68/6/1  87/7/1  88/8/1 
f  70/5/1  69/6/1  88/7/1  89/8/1 
f  71/5/1  70/6/1  89/7/1  90/8/1 
f  72/5/1  71/6/1  90/7/1  91/8/1 
f  73/5/1  72/6/1  91/7/1  92/8/1 
f  74/5/1  73/6/1  92/7/1  93/8/1 
f  75/5/1  74/6/1  93/7/1  94/8/1 
f  76/9/1  75/10/1  94/11/1  95/12/1 
f  78/1/1  77/2/1  96/3/1  97/4/1 
f  79/5/1  78/6/1  97/7/1  98/8/1 
f  80/5/1  79/6/1  98/7/1  99/8/1 
f  81/5/1  80/6/1  99/7/1  100/8/1 
f  82/5/1  81/6/1  100/7/1  101/8/1 
f  83/5/1  82/6/1  101/7/1  102/8/1 
f  84/5/1  83/6/1  102/7/1  103/8/1 
f  85/5/1  84/6/1  103/7/1  104/8/1 
f  86/5/1  85/6/1  104/7/1  105/8/1 
f  87/5/1  86/6/1  105/7/1  106/8/1 
f  88/5/1  87/6/1  106/7/1  107/8/1 
f  89/5/1  88/6/1  107/7/1  108/8/1 
f  90/5/1  89/6/1  108/7/1  109/8/1 
f  91/5/1  90/6/1  109/7/1  110/8/1 
f  92/5/1  91/6/1  110/7/1  111/8/1 
f  93/5/1  92/6/1  111/7/1  112/8/1 
f  94/5/1  93/6/1  112/7/1  113/8/1 
f  95/9/1  94/10/1  113/11/1  114/12/1 
f  97/1/1  96/2/1  115/3/1  116/4/1 
f  98/5/1  97/6/1  116/7/1  117/8/1 
f  99/5/1  98/6/1  117/7/1  118/8/1 
f  100/5/1  99/6/1  118/7/1  119/8/1 
f  101/5/1  100/6/1  119/7/1  120/8/1 
f  102/5/1  101/6/1  120/7/1  121/8/1 
f  103/5/1  102/6/1  121/7/1  122/8/1 
f  104/5/1  103/6/1  122/7/1  123/8/1 
f  105/5/1  104/6/1  123/7/1  124/8/1 
f  106/5/1  105/6/1  124/7/1  125/8/1 
f  107/5/1  106/6/1  125/7/1  126/8/1 
f  108/5/1  107/6/1  126/7/1  127/8/1 
f  109/5/1  108/6/1  127/7/1  128/8/1 
f  110/5/1  109/6/1  128/7/1  129/8/1 
f  111/5/1  110/6/1  129/7/1  130/8/1 
f  112/5/1  111/6/1  130/7/1  131/8/1 
f  113/5/1  112/6/1  131/7/1  132/8/1 
f  114/9/1  113/10/1  132/11/1  133/12/1 
f  116/1/1  115/2/1  134/3/1  135/4/1 
f  117/5/1  116/6/1  135/7/1  136/8/1 
f  118/5/1  117/6/1  136/7/1  137/8/1 
f  119/5/1  118/6/1  137/7/1  138/8/1 
f  120/5/1  119/6/1  138/7/1  139/8/1 
f  121/5/1  120/6/1  139/7/1  140/8/1 
f  122/5/1  121/6/1  140/7/1  141/8/1 
f  123/5/1  122/6/1  141/7/1  142/8/1 
f  124/5/1  123/6/1  142/7/1  143/8/1 
f  125/5/1  124/6/1  143/7/1  144/8/1 
f  126/5/1  125/6/1  144/7/1  145/8/1 
f  127/5/1  126/6/1  145/7/1  146/8/1 
f  128/5/1  127/6/1  146/7/1  147/8/1 
f  129/5/1  128/6/1  147/7/1  148/8/1 
f  130/5/1  129/6/1  148/7/1  149/8/1 
f  131/5/1  130/6/1  149/7/1  150/8/1 
f  132/5/1  131/6/1  150/7/1  151/8/1 
f  133/9/1  132/10/1  151/11/1  152/12/1 
f  135/1/1  134/2/1  153/3/1  154/4/1 
f  136/5/1  135/6/1  154/7/1  155/8/1 
f  137/5/1  136/6/1  155/7/1  156/8/1 
f  138/5/1  137/6/1  156/7/1  157/8/1 
f  139/5/1  138/6/1  157/7/1  158/8/1 
f  140/5/1  139/6/1  158/7/1  159/8/1 
f  141/5/1  140/6/1  159/7/1  160/8/1 
f  142/5/1  141/6/1  160/7/1  161/8/1 
f  143/5/1  142/6/1  161/7/1  162/8/1 
f  144/5/1  143/6/1  162/7/1  163/8/1 
f  145/5/1  144/6/1  163/7/1  164/8/1 
f  146/5/1  145/6/1  164/7/1  165/8/1 
f  147/5/1  146/6/1  165/7/1  166/8/1 
f  148/5/1  147/6/1  166/7/1  167/8/1 
f  149/5/1  148/6/1  167/7/1  168/8/1 
f  150/5/1  149/6/1  168/7/1  169/8/1 
f  151/5/1  150/6/1  169/7/1  170/8/1 
f  152/9/1  151/10/1  170/11/1  171/12/1 
f  154/1/1  153/2/1  172/3/1  173/4/1 
f  155/5/1  154/6/1  173/7/1  174/8/1 
f  156/5/1  155/6/1  174/7/1  175/8/1 
f  157/5/1  156/6/1  175/7/1  176/8/1 
f  162/5/1  161/6/1  180/7/1  181/8/1 
f  163/5/1  162/6/1  181/7/1  182/8/1 
f  164/5/1  163/6/1  182/7/1  183/8/1 
f  165/5/1  164/6/1  183/7/1  184/8/1 
f  166/5/1  165/6/1  184/7/1  185/8/1 
f  167/5/1  166/6/1  185/7/1  186/8/1 
f  168/5/1  167/6/1  186/7/1  187/8/1 
f  169/5/1  168/6/1  187/7/1  188/8/1 
f  170/5/1  169/6/1  188/7/1  189/8/1 
f  171/9/1  170/10/1  189/11/1  190/12/1 
f  173/1/1  172/2/1  191/3/1  192/4/1 
f  174/5/1  173/6/1  192/7/1  193/8/1 
f  175/5/1  174/6/1  193/7/1  194/8/1 
f  176/5/1  175/6/1  194/7/1  195/8/1 
f  181/5/1  180/6/1  199/7/1  200/8/1 
f  182/5/1  181/6/1  200/7/1  201/8/1 
f  183/5/1  182/6/1  201/7/1  202/8/1 
f  184/5/1  183/6/1  202/7/1  203/8/1 
f  185/5/1  184/6/1  203/7/1  204/8/1 
f  186/5/1  185/6/1  204/7/1  205/8/1 
f  187/5/1  186/6/1  205/7/1  206/8/1 
f  188/5/1  187/6/1  206/7/1  207/8/1 
f  189/5/1  188/6/1  207/7/1  208/8/1 
f  190/9/1  189/10/1  208/11/1  209/12/1 
f  192/1/1  191/2/1  210/3/1  211/4/1 
f  193/5/1  192/6/1  211/7/1  212/8/1 
f  194/5/1  193/6/1  212/7/1  213/8/1 
f  195/5/1  194/6/1  213/7/1  214/8/1 
f  200/5/1  199/6/1  218/7/1  219/8/1 
f  201/5/1  200/6/1  219/7/1  220/8/1 
f  202/5/1  201/6/1  220/7/1  221/8/1 
f  203/5/1  202/6/1  221/7/1  222/8/1 
f  204/5/1  203/6/1  222/7/1  223/8/1 
f  205/5/1  204/6/1  223/7/1  224/8/1 
f  206/5/1  205/6/1  224/7/1  225/8/1 
f  207/5/1  206/6/1  225/7/1  226/8/1 
f  208/5/1  207/6/1  226/7/1  227/8/1 
f  209/9/1  208/10/1  227/11/1  228/12/1 
f  211/49/1  210/50/1  229/51/1  230/52/1 
f  212/53/1  211/54/1  230/55/1  231/56/1 
f  213/53/1  212/54/1  231/55/1  232/56/1 
f  214/53/1  213/54/1  232/55/1  233/56/1 
f  219/53/1  218/54/1  237/55/1  238/56/1 
f  220/53/1  219/54/1  238/55/1  239/56/1 
f  221/53/1  220/54/1  239/55/1  240/56/1 
f  222/53/1  221/54/1  240/55/1  241/56/1 
f  223/53/1  222/54/1  241/55/1  242/56/1 
f  224/53/1  223/54/1  242/55/1  243/56/1 
f  225/53/1  224/54/1  243/55/1  244/56/1 
f  226/53/1  225/54/1  244/55/1  245/56/1 
f  227/53/1  226/54/1  245/55/1  246/56/1 
f  228/69/1  227/70/1  246/71/1  247/72/1 
f  230/73/1  229/74/1  248/59/1  249/60/1 
f  231/75/1  230/76/1  249/63/1  250/64/1 
f  232/75/1  231/76/1  250/63/1  251/64/1 
f  233/75/1  232/76/1  251/63/1  252/64/1 
f  238/75/1  237/76/1  256/63/1  257/64/1 
f  239/75/1  238/76/1  257/63/1  258/64/1 
f  240/75/1  239/76/1  258/63/1  259/64/1 
f  241/75/1  240/76/1  259/63/1  260/64/1 
f  242/75/1  241/76/1  260/63/1  261/64/1 
f  243/75/1  242/76/1  261/63/1  262/64/1 
f  244/75/1  243/76/1  262/63/1  263/64/1 
f  245/75/1  244/76/1  263/63/1  264/64/1 
f  246/75/1  245/76/1  264/63/1  265/64/1 
f  247/77/1  246/78/1  265/67/1  266/68/1 
g mesh_[00]_[00]
f  158/13/1  157/14/1  176/15/1  177/16/1 
f  159/17/1  158/18/1  177/19/1  178/20/1 
f  160/17/1  159/18/1  178/19/1  179/20/1 
f  161/21/1  160/22/1  179/23/1  180/24/1 
f  177/25/1  176/26/1  195/27/1  196/28/1 
f  178/29/1  177/30/1  196/31/1  197/32/1 
f  179/29/1  178/30/1  197/31/1  198/32/1 
f  180/33/1  179/34/1  198/35/1  199/36/1 
f  196/37/1  195/38/1  214/39/1  215/40/1 
f  197/41/1  196/42/1  215/43/1  216/44/1 
f  198/41/1  197/42/1  216/43/1  217/44/1 
f  199/45/1  198/46/1  217/47/1  218/48/1 
f  215/57/1  214/58/1  233/59/1  234/60/1 
f  216/61/1  215/62/1  234/63/1  235/64/1 
f  217/61/1  216/62/1  235/63/1  236/64/1 
f  218/65/1  217/66/1  236/67/1  237/68/1 
g mesh_[00]_[04]
f  234/13/1  233/14/1  252/27/1  253/28/1 
f  235/17/1  234/18/1  253/31/1  254/32/1 
f  236/17/1  235/18/1  254/31/1  255/32/1 
f  237/21/1  236/22/1  255/35/1  256/36/1 
f  253/37/1  252/38/1  267/59/1  268/60/1 
f  254/41/1  253/42/1  268/63/1  269/64/1 
f  255/41/1  254/42/1  269/63/1  270/64/1 
f  256/45/1  255/46/1  270/67/1  271/68/1 
g mesh_[01]_[01]
f  1/13/1  2/14/1  3/79/1  4/80/1 
f  5/17/1  1/18/1  4/81/1  6/82/1 
f  7/17/1  5/18/1  6/81/1  8/82/1 
f  9/17/1  7/18/1  8/81/1  10/82/1 
f  11/17/1  9/18/1  10/81/1  12/82/1 
f  13/17/1  11/18/1  12/81/1  14/82/1 
f  15/17/1  13/18/1  14/81/1  16/82/1 
f  17/17/1  15/18/1  16/81/1  18/82/1 
f  19/17/1  17/18/1  18/81/1  20/82/1 
f  21/17/1  19/18/1  20/81/1  22/82/1 
f  23/17/1  21/18/1  22/81/1  24/82/1 
f  25/17/1  23/18/1  24/81/1  26/82/1 
f  31/17/1  29/18/1  30/81/1  32/82/1 
f  33/17/1  31/18/1  32/81/1  34/82/1 
f  35/17/1  33/18/1  34/81/1  36/82/1 
f  37/21/1  35/22/1  36/88/1  38/87/1 
f  4/89/1  3/90/1  39/91/1  40/92/1 
f  6/93/1  4/94/1  40/95/1  41/96/1 
f  8/93/1  6/94/1  41/95/1  42/96/1 
f  10/93/1  8/94/1  42/95/1  43/96/1 
f  12/93/1  10/94/1  43/95/1  44/96/1 
f  14/93/1  12/94/1  44/95/1  45/96/1 
f  16/93/1  14/94/1  45/95/1  46/96/1 
f  18/93/1  16/94/1  46/95/1  47/96/1 
f  20/93/1  18/94/1  47/95/1  48/96/1 
f  22/93/1  20/94/1  48/95/1  49/96/1 
f  24/93/1  22/94/1  49/95/1  50/96/1 
f  26/93/1  24/94/1  50/95/1  51/96/1 
f  32/93/1  30/94/1  53/95/1  54/96/1 
f  34/93/1  32/94/1  54/95/1  55/96/1 
f  36/93/1  34/94/1  55/95/1  56/96/1 
f  38/99/1  36/103/1  56/104/1  57/102/1 
f  40/105/1  39/106/1  58/59/1  59/60/1 
f  41/107/1  40/108/1  59/63/1  60/64/1 
f  42/107/1  41/108/1  60/63/1  61/64/1 
f  43/107/1  42/108/1  61/63/1  62/64/1 
f  44/107/1  43/108/1  62/63/1  63/64/1 
f  45/107/1  44/108/1  63/63/1  64/64/1 
f  46/107/1  45/108/1  64/63/1  65/64/1 
f  47/107/1  46/108/1  65/63/1  66/64/1 
f  48/107/1  47/108/1  66/63/1  67/64/1 
f  49/107/1  48/108/1  67/63/1  68/64/1 
f  50/107/1  49/108/1  68/63/1  69/64/1 
f  51/107/1  50/108/1  69/63/1  70/64/1 
f  54/107/1  53/108/1  72/63/1  73/64/1 
f  55/107/1  54/108/1  73/63/1  74/64/1 
f  56/107/1  55/108/1  74/63/1  75/64/1 
f  57/111/1  56/114/1  75/67/1  76/68/1 
g mesh_[01]_[02]
f  27/83/1  25/14/1  26/79/1  28/84/1 
f  29/21/1  27/85/1  28/86/1  30/87/1 
f  28/97/1  26/90/1  51/91/1  52/98/1 
f  30/99/1  28/100/1  52/101/1  53/102/1 
f  52/109/1  51/106/1  70/59/1  71/110/1 
f  53/111/1  52/112/1  71/113/1  72/68/1 
