# Wavefront OBJ file automatically generated by Tiled2Unity

# Vertices (Count = 135)
v -120 -660 0
v -180 -660 0
v -180 -600 0
v -120 -600 0
v -60 -660 0
v -60 -600 0
v -600 -600 0
v -660 -600 0
v -660 -540 0
v -600 -540 0
v -540 -600 0
v -540 -540 0
v -480 -600 0
v -480 -540 0
v -420 -600 0
v -420 -540 0
v -360 -600 0
v -360 -540 0
v -300 -600 0
v -300 -540 0
v -240 -600 0
v -240 -540 0
v -180 -540 0
v -120 -540 0
v -60 -540 0
v 0 -600 0
v 0 -540 0
v -660 -480 0
v -600 -480 0
v -540 -480 0
v -480 -480 0
v -420 -480 0
v -360 -480 0
v -300 -480 0
v -240 -480 0
v -180 -480 0
v -120 -480 0
v -60 -480 0
v 0 -480 0
v -660 -420 0
v -600 -420 0
v -540 -420 0
v -480 -420 0
v -420 -420 0
v -360 -420 0
v -300 -420 0
v -240 -420 0
v -180 -420 0
v -120 -420 0
v -60 -420 0
v 0 -420 0
v -660 -360 0
v -600 -360 0
v -540 -360 0
v -480 -360 0
v -420 -360 0
v -360 -360 0
v -300 -360 0
v -240 -360 0
v -180 -360 0
v -120 -360 0
v -60 -360 0
v 0 -360 0
v -660 -300 0
v -600 -300 0
v -540 -300 0
v -480 -300 0
v -420 -300 0
v -360 -300 0
v -300 -300 0
v -240 -300 0
v -180 -300 0
v -120 -300 0
v -60 -300 0
v 0 -300 0
v -660 -240 0
v -600 -240 0
v -540 -240 0
v -480 -240 0
v -420 -240 0
v -360 -240 0
v -300 -240 0
v -240 -240 0
v -180 -240 0
v -120 -240 0
v -60 -240 0
v 0 -240 0
v -660 -180 0
v -600 -180 0
v -540 -180 0
v -480 -180 0
v -420 -180 0
v -360 -180 0
v -300 -180 0
v -240 -180 0
v -180 -180 0
v -120 -180 0
v -60 -180 0
v 0 -180 0
v -660 -120 0
v -600 -120 0
v -540 -120 0
v -480 -120 0
v -420 -120 0
v -360 -120 0
v -300 -120 0
v -240 -120 0
v -180 -120 0
v -120 -120 0
v -60 -120 0
v 0 -120 0
v -660 -60 0
v -600 -60 0
v -540 -60 0
v -480 -60 0
v -420 -60 0
v -360 -60 0
v -300 -60 0
v -240 -60 0
v -180 -60 0
v -120 -60 0
v -60 -60 0
v 0 -60 0
v -660 0 0
v -600 0 0
v -540 0 0
v -480 0 0
v -420 0 0
v -360 0 0
v -300 0 0
v -240 0 0
v -180 0 0
v -120 0 0
v -60 0 0
v 0 0 0

# Texture Coorindates (Count = 72)
vt 0.6667888 0.0001220703
vt 0.9998779 0.0001220703
vt 0.9998779 0.3332113
vt 0.6667888 0.3332113
vt 0.0001220703 0.0001220703
vt 0.3332113 0.0001220703
vt 0.3332113 0.3332113
vt 0.0001220703 0.3332113
vt 0.3334554 0.0001220703
vt 0.6665446 0.0001220703
vt 0.6665446 0.3332113
vt 0.3334554 0.3332113
vt 0.3334554 0.3334554
vt 0.6665446 0.3334554
vt 0.6665446 0.6665446
vt 0.3334554 0.6665446
vt 0.6667888 0.3334554
vt 0.9998779 0.3334554
vt 0.9998779 0.6665446
vt 0.6667888 0.6665446
vt 0.0001220703 0.3334554
vt 0.3332113 0.3334554
vt 0.3332113 0.6665446
vt 0.0001220703 0.6665446
vt 0.6667888 0.6667888
vt 0.9998779 0.6667888
vt 0.9998779 0.9998779
vt 0.6667888 0.9998779
vt 0.3334554 0.6667888
vt 0.6665446 0.6667888
vt 0.6665446 0.9998779
vt 0.3334554 0.9998779
vt 0.0001220703 0.6667888
vt 0.3332113 0.6667888
vt 0.3332113 0.9998779
vt 0.0001220703 0.9998779
vt 0.9998779 0.2498779
vt 0.6667888 0.2498779
vt 0.6665446 0.2498779
vt 0.3334554 0.2498779
vt 0.3332113 0.2498779
vt 0.0001220703 0.2498779
vt 0.6667888 0.2501221
vt 0.9998779 0.2501221
vt 0.9998779 0.4998779
vt 0.6667888 0.4998779
vt 0.3334554 0.2501221
vt 0.6665446 0.2501221
vt 0.6665446 0.4998779
vt 0.3334554 0.4998779
vt 0.0001220703 0.2501221
vt 0.3332113 0.2501221
vt 0.3332113 0.4998779
vt 0.0001220703 0.4998779
vt 0.6667888 0.5001221
vt 0.9998779 0.5001221
vt 0.9998779 0.7498779
vt 0.6667888 0.7498779
vt 0.3334554 0.5001221
vt 0.6665446 0.5001221
vt 0.6665446 0.7498779
vt 0.3334554 0.7498779
vt 0.0001220703 0.5001221
vt 0.3332113 0.5001221
vt 0.3332113 0.7498779
vt 0.0001220703 0.7498779
vt 0.6667888 0.7501221
vt 0.9998779 0.7501221
vt 0.3334554 0.7501221
vt 0.6665446 0.7501221
vt 0.0001220703 0.7501221
vt 0.3332113 0.7501221

# Normal
vn 0 0 -1

# Groups (Count = 3)
g mesh_[00]_[01]
f  1/1/1  2/2/1  3/3/1  4/4/1 
f  5/5/1  1/6/1  4/7/1  6/8/1 
f  7/1/1  8/2/1  9/3/1  10/4/1 
f  11/9/1  7/10/1  10/11/1  12/12/1 
f  13/9/1  11/10/1  12/11/1  14/12/1 
f  15/9/1  13/10/1  14/11/1  16/12/1 
f  17/9/1  15/10/1  16/11/1  18/12/1 
f  19/9/1  17/10/1  18/11/1  20/12/1 
f  21/9/1  19/10/1  20/11/1  22/12/1 
f  3/9/1  21/10/1  22/11/1  23/12/1 
f  4/13/1  3/14/1  23/15/1  24/16/1 
f  6/13/1  4/14/1  24/15/1  25/16/1 
f  26/5/1  6/6/1  25/7/1  27/8/1 
f  10/17/1  9/18/1  28/19/1  29/20/1 
f  12/13/1  10/14/1  29/15/1  30/16/1 
f  14/13/1  12/14/1  30/15/1  31/16/1 
f  16/13/1  14/14/1  31/15/1  32/16/1 
f  18/13/1  16/14/1  32/15/1  33/16/1 
f  20/13/1  18/14/1  33/15/1  34/16/1 
f  22/13/1  20/14/1  34/15/1  35/16/1 
f  23/13/1  22/14/1  35/15/1  36/16/1 
f  24/13/1  23/14/1  36/15/1  37/16/1 
f  25/13/1  24/14/1  37/15/1  38/16/1 
f  27/21/1  25/22/1  38/23/1  39/24/1 
f  29/17/1  28/18/1  40/19/1  41/20/1 
f  30/13/1  29/14/1  41/15/1  42/16/1 
f  31/13/1  30/14/1  42/15/1  43/16/1 
f  32/13/1  31/14/1  43/15/1  44/16/1 
f  33/13/1  32/14/1  44/15/1  45/16/1 
f  34/13/1  33/14/1  45/15/1  46/16/1 
f  35/13/1  34/14/1  46/15/1  47/16/1 
f  36/13/1  35/14/1  47/15/1  48/16/1 
f  37/13/1  36/14/1  48/15/1  49/16/1 
f  38/13/1  37/14/1  49/15/1  50/16/1 
f  39/21/1  38/22/1  50/23/1  51/24/1 
f  41/17/1  40/18/1  52/19/1  53/20/1 
f  42/13/1  41/14/1  53/15/1  54/16/1 
f  43/13/1  42/14/1  54/15/1  55/16/1 
f  44/13/1  43/14/1  55/15/1  56/16/1 
f  45/13/1  44/14/1  56/15/1  57/16/1 
f  46/13/1  45/14/1  57/15/1  58/16/1 
f  47/13/1  46/14/1  58/15/1  59/16/1 
f  48/13/1  47/14/1  59/15/1  60/16/1 
f  49/13/1  48/14/1  60/15/1  61/16/1 
f  50/13/1  49/14/1  61/15/1  62/16/1 
f  51/21/1  50/22/1  62/23/1  63/24/1 
f  53/17/1  52/18/1  64/19/1  65/20/1 
f  54/13/1  53/14/1  65/15/1  66/16/1 
f  55/13/1  54/14/1  66/15/1  67/16/1 
f  56/13/1  55/14/1  67/15/1  68/16/1 
f  57/13/1  56/14/1  68/15/1  69/16/1 
f  58/13/1  57/14/1  69/15/1  70/16/1 
f  59/13/1  58/14/1  70/15/1  71/16/1 
f  60/13/1  59/14/1  71/15/1  72/16/1 
f  61/13/1  60/14/1  72/15/1  73/16/1 
f  62/13/1  61/14/1  73/15/1  74/16/1 
f  63/21/1  62/22/1  74/23/1  75/24/1 
f  65/25/1  64/26/1  76/27/1  77/28/1 
f  66/29/1  65/30/1  77/31/1  78/32/1 
f  67/29/1  66/30/1  78/31/1  79/32/1 
f  68/29/1  67/30/1  79/31/1  80/32/1 
f  69/29/1  68/30/1  80/31/1  81/32/1 
f  70/29/1  69/30/1  81/31/1  82/32/1 
f  71/29/1  70/30/1  82/31/1  83/32/1 
f  72/29/1  71/30/1  83/31/1  84/32/1 
f  73/29/1  72/30/1  84/31/1  85/32/1 
f  74/29/1  73/30/1  85/31/1  86/32/1 
f  75/33/1  74/34/1  86/35/1  87/36/1 
g mesh_[00]_[00]
f  77/1/1  76/2/1  88/37/1  89/38/1 
f  78/9/1  77/10/1  89/39/1  90/40/1 
f  79/9/1  78/10/1  90/39/1  91/40/1 
f  80/9/1  79/10/1  91/39/1  92/40/1 
f  81/9/1  80/10/1  92/39/1  93/40/1 
f  82/9/1  81/10/1  93/39/1  94/40/1 
f  83/9/1  82/10/1  94/39/1  95/40/1 
f  84/9/1  83/10/1  95/39/1  96/40/1 
f  85/9/1  84/10/1  96/39/1  97/40/1 
f  86/9/1  85/10/1  97/39/1  98/40/1 
f  87/5/1  86/6/1  98/41/1  99/42/1 
f  89/43/1  88/44/1  100/45/1  101/46/1 
f  90/47/1  89/48/1  101/49/1  102/50/1 
f  91/47/1  90/48/1  102/49/1  103/50/1 
f  92/47/1  91/48/1  103/49/1  104/50/1 
f  93/47/1  92/48/1  104/49/1  105/50/1 
f  94/47/1  93/48/1  105/49/1  106/50/1 
f  95/47/1  94/48/1  106/49/1  107/50/1 
f  96/47/1  95/48/1  107/49/1  108/50/1 
f  97/47/1  96/48/1  108/49/1  109/50/1 
f  98/47/1  97/48/1  109/49/1  110/50/1 
f  99/51/1  98/52/1  110/53/1  111/54/1 
f  101/55/1  100/56/1  112/57/1  113/58/1 
f  102/59/1  101/60/1  113/61/1  114/62/1 
f  103/59/1  102/60/1  114/61/1  115/62/1 
f  104/59/1  103/60/1  115/61/1  116/62/1 
f  105/59/1  104/60/1  116/61/1  117/62/1 
f  106/59/1  105/60/1  117/61/1  118/62/1 
f  107/59/1  106/60/1  118/61/1  119/62/1 
f  108/59/1  107/60/1  119/61/1  120/62/1 
f  109/59/1  108/60/1  120/61/1  121/62/1 
f  110/59/1  109/60/1  121/61/1  122/62/1 
f  111/63/1  110/64/1  122/65/1  123/66/1 
f  113/67/1  112/68/1  124/27/1  125/28/1 
f  114/69/1  113/70/1  125/31/1  126/32/1 
f  115/69/1  114/70/1  126/31/1  127/32/1 
f  116/69/1  115/70/1  127/31/1  128/32/1 
f  117/69/1  116/70/1  128/31/1  129/32/1 
f  118/69/1  117/70/1  129/31/1  130/32/1 
f  119/69/1  118/70/1  130/31/1  131/32/1 
f  120/69/1  119/70/1  131/31/1  132/32/1 
f  121/69/1  120/70/1  132/31/1  133/32/1 
f  122/69/1  121/70/1  133/31/1  134/32/1 
f  123/71/1  122/72/1  134/35/1  135/36/1 
g mesh_[01]_[02]
f  37/1/1  36/2/1  48/3/1  49/4/1 
f  38/9/1  37/10/1  49/11/1  50/12/1 
f  39/5/1  38/6/1  50/7/1  51/8/1 
f  47/1/1  46/2/1  58/3/1  59/4/1 
f  48/5/1  47/6/1  59/7/1  60/8/1 
f  49/25/1  48/26/1  60/27/1  61/28/1 
f  50/29/1  49/30/1  61/31/1  62/32/1 
f  51/33/1  50/34/1  62/35/1  63/36/1 
f  59/17/1  58/18/1  70/19/1  71/20/1 
f  60/21/1  59/22/1  71/23/1  72/24/1 
f  71/25/1  70/26/1  82/27/1  83/28/1 
f  72/33/1  71/34/1  83/35/1  84/36/1 
