# Wavefront OBJ file automatically generated by Tiled2Unity

# Vertices (Count = 104)
v -5.99976015090942 -11.9995203018188 0
v -6.99972009658813 -11.9995203018188 0
v -6.99972009658813 -10.9995603561401 0
v -5.99976015090942 -10.9995603561401 0
v -4.99980020523071 -11.9995203018188 0
v -4.99980020523071 -10.9995603561401 0
v -3.999840259552 -11.9995203018188 0
v -3.999840259552 -10.9995603561401 0
v -1.999920129776 -11.9995203018188 0
v -2.99988007545471 -11.9995203018188 0
v -2.99988007545471 -10.9995603561401 0
v -1.999920129776 -10.9995603561401 0
v -0.999960064888 -11.9995203018188 0
v -0.999960064888 -10.9995603561401 0
v 0 -11.9995203018188 0
v 0 -10.9995603561401 0
v -6.99972009658813 -9.99960041046143 0
v -5.99976015090942 -9.99960041046143 0
v -4.99980020523071 -9.99960041046143 0
v -3.999840259552 -9.99960041046143 0
v -2.99988007545471 -9.99960041046143 0
v -1.999920129776 -9.99960041046143 0
v -0.999960064888 -9.99960041046143 0
v 0 -9.99960041046143 0
v -6.99972009658813 -8.99964046478271 0
v -5.99976015090942 -8.99964046478271 0
v -4.99980020523071 -8.99964046478271 0
v -3.999840259552 -8.99964046478271 0
v -2.99988007545471 -8.99964046478271 0
v -1.999920129776 -8.99964046478271 0
v -0.999960064888 -8.99964046478271 0
v 0 -8.99964046478271 0
v -6.99972009658813 -7.999680519104 0
v -5.99976015090942 -7.999680519104 0
v -4.99980020523071 -7.999680519104 0
v -3.999840259552 -7.999680519104 0
v -2.99988007545471 -7.999680519104 0
v -1.999920129776 -7.999680519104 0
v -0.999960064888 -7.999680519104 0
v 0 -7.999680519104 0
v -6.99972009658813 -6.99972009658813 0
v -5.99976015090942 -6.99972009658813 0
v -4.99980020523071 -6.99972009658813 0
v -3.999840259552 -6.99972009658813 0
v -2.99988007545471 -6.99972009658813 0
v -1.999920129776 -6.99972009658813 0
v -0.999960064888 -6.99972009658813 0
v 0 -6.99972009658813 0
v -6.99972009658813 -5.99976015090942 0
v -5.99976015090942 -5.99976015090942 0
v -4.99980020523071 -5.99976015090942 0
v -3.999840259552 -5.99976015090942 0
v -2.99988007545471 -5.99976015090942 0
v -1.999920129776 -5.99976015090942 0
v -0.999960064888 -5.99976015090942 0
v 0 -5.99976015090942 0
v -6.99972009658813 -4.99980020523071 0
v -5.99976015090942 -4.99980020523071 0
v -4.99980020523071 -4.99980020523071 0
v -3.999840259552 -4.99980020523071 0
v -2.99988007545471 -4.99980020523071 0
v -1.999920129776 -4.99980020523071 0
v -0.999960064888 -4.99980020523071 0
v 0 -4.99980020523071 0
v -6.99972009658813 -3.999840259552 0
v -5.99976015090942 -3.999840259552 0
v -4.99980020523071 -3.999840259552 0
v -3.999840259552 -3.999840259552 0
v -2.99988007545471 -3.999840259552 0
v -1.999920129776 -3.999840259552 0
v -0.999960064888 -3.999840259552 0
v 0 -3.999840259552 0
v -6.99972009658813 -2.99988007545471 0
v -5.99976015090942 -2.99988007545471 0
v -4.99980020523071 -2.99988007545471 0
v -3.999840259552 -2.99988007545471 0
v -2.99988007545471 -2.99988007545471 0
v -1.999920129776 -2.99988007545471 0
v -0.999960064888 -2.99988007545471 0
v 0 -2.99988007545471 0
v -6.99972009658813 -1.999920129776 0
v -5.99976015090942 -1.999920129776 0
v -4.99980020523071 -1.999920129776 0
v -3.999840259552 -1.999920129776 0
v -2.99988007545471 -1.999920129776 0
v -1.999920129776 -1.999920129776 0
v -0.999960064888 -1.999920129776 0
v 0 -1.999920129776 0
v -6.99972009658813 -0.999960064888 0
v -5.99976015090942 -0.999960064888 0
v -4.99980020523071 -0.999960064888 0
v -3.999840259552 -0.999960064888 0
v -2.99988007545471 -0.999960064888 0
v -1.999920129776 -0.999960064888 0
v -0.999960064888 -0.999960064888 0
v 0 -0.999960064888 0
v -6.99972009658813 0 0
v -5.99976015090942 0 0
v -4.99980020523071 0 0
v -3.999840259552 0 0
v -2.99988007545471 0 0
v -1.999920129776 0 0
v -0.999960064888 0 0
v 0 0 0

# Texture Coorindates (Count = 120)
vt 0.6667888 0.0001220703
vt 0.9998779 0.0001220703
vt 0.9998779 0.1998779
vt 0.6667888 0.1998779
vt 0.3334554 0.0001220703
vt 0.6665446 0.0001220703
vt 0.6665446 0.1998779
vt 0.3334554 0.1998779
vt 0.0001220703 0.0001220703
vt 0.3332113 0.0001220703
vt 0.3332113 0.1998779
vt 0.0001220703 0.1998779
vt 0.6667888 0.2001221
vt 0.9998779 0.2001221
vt 0.9998779 0.3998779
vt 0.6667888 0.3998779
vt 0.3334554 0.2001221
vt 0.6665446 0.2001221
vt 0.6665446 0.3998779
vt 0.3334554 0.3998779
vt 0.0001220703 0.2001221
vt 0.3332113 0.2001221
vt 0.3332113 0.3998779
vt 0.0001220703 0.3998779
vt 0.6667888 0.4001221
vt 0.9998779 0.4001221
vt 0.9998779 0.599878
vt 0.6667888 0.599878
vt 0.3334554 0.4001221
vt 0.6665446 0.4001221
vt 0.6665446 0.599878
vt 0.3334554 0.599878
vt 0.0001220703 0.4001221
vt 0.3332113 0.4001221
vt 0.3332113 0.599878
vt 0.0001220703 0.599878
vt 0.6667888 0.6001221
vt 0.9998779 0.6001221
vt 0.9998779 0.7998779
vt 0.6667888 0.7998779
vt 0.3334554 0.6001221
vt 0.6665446 0.6001221
vt 0.6665446 0.7998779
vt 0.3334554 0.7998779
vt 0.0001220703 0.6001221
vt 0.3332113 0.6001221
vt 0.3332113 0.7998779
vt 0.0001220703 0.7998779
vt 0.6667888 0.8001221
vt 0.9998779 0.8001221
vt 0.9998779 0.9998779
vt 0.6667888 0.9998779
vt 0.3334554 0.8001221
vt 0.6665446 0.8001221
vt 0.6665446 0.9998779
vt 0.3334554 0.9998779
vt 0.0001220703 0.8001221
vt 0.3332113 0.8001221
vt 0.3332113 0.9998779
vt 0.0001220703 0.9998779
vt 0.9998779 0.3332113
vt 0.6667888 0.3332113
vt 0.6665446 0.3332113
vt 0.3334554 0.3332113
vt 0.3332113 0.3332113
vt 0.0001220703 0.3332113
vt 0.6667888 0.3334554
vt 0.9998779 0.3334554
vt 0.9998779 0.6665446
vt 0.6667888 0.6665446
vt 0.3334554 0.3334554
vt 0.6665446 0.3334554
vt 0.6665446 0.6665446
vt 0.3334554 0.6665446
vt 0.0001220703 0.3334554
vt 0.3332113 0.3334554
vt 0.3332113 0.6665446
vt 0.0001220703 0.6665446
vt 0.6667888 0.6667888
vt 0.9998779 0.6667888
vt 0.3334554 0.6667888
vt 0.6665446 0.6667888
vt 0.0001220703 0.6667888
vt 0.3332113 0.6667888
vt 0.9998779 0.2498779
vt 0.6667888 0.2498779
vt 0.6665446 0.2498779
vt 0.3334554 0.2498779
vt 0.3332113 0.2498779
vt 0.0001220703 0.2498779
vt 0.6667888 0.2501221
vt 0.9998779 0.2501221
vt 0.9998779 0.4998779
vt 0.6667888 0.4998779
vt 0.3334554 0.2501221
vt 0.6665446 0.2501221
vt 0.6665446 0.4998779
vt 0.3334554 0.4998779
vt 0.0001220703 0.2501221
vt 0.3332113 0.2501221
vt 0.3332113 0.4998779
vt 0.0001220703 0.4998779
vt 0.6667888 0.5001221
vt 0.9998779 0.5001221
vt 0.9998779 0.7498779
vt 0.6667888 0.7498779
vt 0.3334554 0.5001221
vt 0.6665446 0.5001221
vt 0.6665446 0.7498779
vt 0.3334554 0.7498779
vt 0.0001220703 0.5001221
vt 0.3332113 0.5001221
vt 0.3332113 0.7498779
vt 0.0001220703 0.7498779
vt 0.6667888 0.7501221
vt 0.9998779 0.7501221
vt 0.3334554 0.7501221
vt 0.6665446 0.7501221
vt 0.0001220703 0.7501221
vt 0.3332113 0.7501221

# Normal
vn 0 0 -1

# Groups (Count = 4)
g mesh_[00]_[01]
f  1/1/1  2/2/1  3/3/1  4/4/1 
f  5/5/1  1/6/1  4/7/1  6/8/1 
f  7/9/1  5/10/1  6/11/1  8/12/1 
f  4/13/1  3/14/1  17/15/1  18/16/1 
f  6/17/1  4/18/1  18/19/1  19/20/1 
f  8/21/1  6/22/1  19/23/1  20/24/1 
f  18/25/1  17/26/1  25/27/1  26/28/1 
f  19/29/1  18/30/1  26/31/1  27/32/1 
f  20/33/1  19/34/1  27/35/1  28/36/1 
f  26/37/1  25/38/1  33/39/1  34/40/1 
f  27/41/1  26/42/1  34/43/1  35/44/1 
f  28/45/1  27/46/1  35/47/1  36/48/1 
f  34/49/1  33/50/1  41/51/1  42/52/1 
f  35/53/1  34/54/1  42/55/1  43/56/1 
f  36/57/1  35/58/1  43/59/1  44/60/1 
g mesh_[00]_[02]
f  9/1/1  10/2/1  11/3/1  12/4/1 
f  13/5/1  9/6/1  12/7/1  14/8/1 
f  15/9/1  13/10/1  14/11/1  16/12/1 
f  12/13/1  11/14/1  21/15/1  22/16/1 
f  14/17/1  12/18/1  22/19/1  23/20/1 
f  16/21/1  14/22/1  23/23/1  24/24/1 
f  22/25/1  21/26/1  29/27/1  30/28/1 
f  23/29/1  22/30/1  30/31/1  31/32/1 
f  24/33/1  23/34/1  31/35/1  32/36/1 
f  30/37/1  29/38/1  37/39/1  38/40/1 
f  31/41/1  30/42/1  38/43/1  39/44/1 
f  32/45/1  31/46/1  39/47/1  40/48/1 
f  38/49/1  37/50/1  45/51/1  46/52/1 
f  39/53/1  38/54/1  46/55/1  47/56/1 
f  40/57/1  39/58/1  47/59/1  48/60/1 
g mesh_[00]_[00]
f  42/1/1  41/2/1  49/61/1  50/62/1 
f  43/5/1  42/6/1  50/63/1  51/64/1 
f  44/5/1  43/6/1  51/63/1  52/64/1 
f  45/5/1  44/6/1  52/63/1  53/64/1 
f  46/5/1  45/6/1  53/63/1  54/64/1 
f  47/5/1  46/6/1  54/63/1  55/64/1 
f  48/9/1  47/10/1  55/65/1  56/66/1 
f  50/67/1  49/68/1  57/69/1  58/70/1 
f  51/71/1  50/72/1  58/73/1  59/74/1 
f  52/71/1  51/72/1  59/73/1  60/74/1 
f  53/71/1  52/72/1  60/73/1  61/74/1 
f  54/71/1  53/72/1  61/73/1  62/74/1 
f  55/71/1  54/72/1  62/73/1  63/74/1 
f  56/75/1  55/76/1  63/77/1  64/78/1 
f  58/79/1  57/80/1  65/51/1  66/52/1 
f  59/81/1  58/82/1  66/55/1  67/56/1 
f  60/81/1  59/82/1  67/55/1  68/56/1 
f  61/81/1  60/82/1  68/55/1  69/56/1 
f  62/81/1  61/82/1  69/55/1  70/56/1 
f  63/81/1  62/82/1  70/55/1  71/56/1 
f  64/83/1  63/84/1  71/59/1  72/60/1 
g mesh_[00]_[03]
f  66/1/1  65/2/1  73/85/1  74/86/1 
f  67/5/1  66/6/1  74/87/1  75/88/1 
f  68/5/1  67/6/1  75/87/1  76/88/1 
f  69/5/1  68/6/1  76/87/1  77/88/1 
f  70/5/1  69/6/1  77/87/1  78/88/1 
f  71/5/1  70/6/1  78/87/1  79/88/1 
f  72/9/1  71/10/1  79/89/1  80/90/1 
f  74/91/1  73/92/1  81/93/1  82/94/1 
f  75/95/1  74/96/1  82/97/1  83/98/1 
f  76/95/1  75/96/1  83/97/1  84/98/1 
f  77/95/1  76/96/1  84/97/1  85/98/1 
f  78/95/1  77/96/1  85/97/1  86/98/1 
f  79/95/1  78/96/1  86/97/1  87/98/1 
f  80/99/1  79/100/1  87/101/1  88/102/1 
f  82/103/1  81/104/1  89/105/1  90/106/1 
f  83/107/1  82/108/1  90/109/1  91/110/1 
f  84/107/1  83/108/1  91/109/1  92/110/1 
f  85/107/1  84/108/1  92/109/1  93/110/1 
f  86/107/1  85/108/1  93/109/1  94/110/1 
f  87/107/1  86/108/1  94/109/1  95/110/1 
f  88/111/1  87/112/1  95/113/1  96/114/1 
f  90/115/1  89/116/1  97/51/1  98/52/1 
f  91/117/1  90/118/1  98/55/1  99/56/1 
f  92/117/1  91/118/1  99/55/1  100/56/1 
f  93/117/1  92/118/1  100/55/1  101/56/1 
f  94/117/1  93/118/1  101/55/1  102/56/1 
f  95/117/1  94/118/1  102/55/1  103/56/1 
f  96/119/1  95/120/1  103/59/1  104/60/1 
