# Wavefront OBJ file automatically generated by Tiled2Unity

# Vertices (Count = 184)
v -16.9993209838867 -10.9995603561401 0
v -17.9992809295654 -10.9995603561401 0
v -17.9992809295654 -9.99960041046143 0
v -16.9993209838867 -9.99960041046143 0
v -15.999361038208 -10.9995603561401 0
v -15.999361038208 -9.99960041046143 0
v -14.9994010925293 -10.9995603561401 0
v -14.9994010925293 -9.99960041046143 0
v -1.999920129776 -10.9995603561401 0
v -2.99988007545471 -10.9995603561401 0
v -2.99988007545471 -9.99960041046143 0
v -1.999920129776 -9.99960041046143 0
v -0.999960064888 -10.9995603561401 0
v -0.999960064888 -9.99960041046143 0
v 0 -10.9995603561401 0
v 0 -9.99960041046143 0
v -17.9992809295654 -8.99964046478271 0
v -16.9993209838867 -8.99964046478271 0
v -15.999361038208 -8.99964046478271 0
v -14.9994010925293 -8.99964046478271 0
v -2.99988007545471 -8.99964046478271 0
v -1.999920129776 -8.99964046478271 0
v -0.999960064888 -8.99964046478271 0
v 0 -8.99964046478271 0
v -17.9992809295654 -7.999680519104 0
v -16.9993209838867 -7.999680519104 0
v -15.999361038208 -7.999680519104 0
v -14.9994010925293 -7.999680519104 0
v -2.99988007545471 -7.999680519104 0
v -1.999920129776 -7.999680519104 0
v -0.999960064888 -7.999680519104 0
v 0 -7.999680519104 0
v -17.9992809295654 -6.99972009658813 0
v -16.9993209838867 -6.99972009658813 0
v -15.999361038208 -6.99972009658813 0
v -14.9994010925293 -6.99972009658813 0
v -2.99988007545471 -6.99972009658813 0
v -1.999920129776 -6.99972009658813 0
v -0.999960064888 -6.99972009658813 0
v 0 -6.99972009658813 0
v -17.9992809295654 -5.99976015090942 0
v -16.9993209838867 -5.99976015090942 0
v -15.999361038208 -5.99976015090942 0
v -14.9994010925293 -5.99976015090942 0
v -13.9994401931763 -6.99972009658813 0
v -13.9994401931763 -5.99976015090942 0
v -12.9994802474976 -6.99972009658813 0
v -12.9994802474976 -5.99976015090942 0
v -11.9995203018188 -6.99972009658813 0
v -11.9995203018188 -5.99976015090942 0
v -10.9995603561401 -6.99972009658813 0
v -10.9995603561401 -5.99976015090942 0
v -9.99960041046143 -6.99972009658813 0
v -9.99960041046143 -5.99976015090942 0
v -8.99964046478271 -6.99972009658813 0
v -8.99964046478271 -5.99976015090942 0
v -7.999680519104 -6.99972009658813 0
v -7.999680519104 -5.99976015090942 0
v -6.99972009658813 -6.99972009658813 0
v -6.99972009658813 -5.99976015090942 0
v -5.99976015090942 -6.99972009658813 0
v -5.99976015090942 -5.99976015090942 0
v -4.99980020523071 -6.99972009658813 0
v -4.99980020523071 -5.99976015090942 0
v -3.999840259552 -6.99972009658813 0
v -3.999840259552 -5.99976015090942 0
v -2.99988007545471 -5.99976015090942 0
v -1.999920129776 -5.99976015090942 0
v -0.999960064888 -5.99976015090942 0
v 0 -5.99976015090942 0
v -17.9992809295654 -4.99980020523071 0
v -16.9993209838867 -4.99980020523071 0
v -15.999361038208 -4.99980020523071 0
v -14.9994010925293 -4.99980020523071 0
v -13.9994401931763 -4.99980020523071 0
v -12.9994802474976 -4.99980020523071 0
v -11.9995203018188 -4.99980020523071 0
v -10.9995603561401 -4.99980020523071 0
v -9.99960041046143 -4.99980020523071 0
v -8.99964046478271 -4.99980020523071 0
v -7.999680519104 -4.99980020523071 0
v -6.99972009658813 -4.99980020523071 0
v -5.99976015090942 -4.99980020523071 0
v -4.99980020523071 -4.99980020523071 0
v -3.999840259552 -4.99980020523071 0
v -2.99988007545471 -4.99980020523071 0
v -1.999920129776 -4.99980020523071 0
v -0.999960064888 -4.99980020523071 0
v 0 -4.99980020523071 0
v -17.9992809295654 -3.999840259552 0
v -16.9993209838867 -3.999840259552 0
v -15.999361038208 -3.999840259552 0
v -14.9994010925293 -3.999840259552 0
v -13.9994401931763 -3.999840259552 0
v -12.9994802474976 -3.999840259552 0
v -11.9995203018188 -3.999840259552 0
v -10.9995603561401 -3.999840259552 0
v -9.99960041046143 -3.999840259552 0
v -8.99964046478271 -3.999840259552 0
v -7.999680519104 -3.999840259552 0
v -6.99972009658813 -3.999840259552 0
v -5.99976015090942 -3.999840259552 0
v -4.99980020523071 -3.999840259552 0
v -3.999840259552 -3.999840259552 0
v -2.99988007545471 -3.999840259552 0
v -1.999920129776 -3.999840259552 0
v -0.999960064888 -3.999840259552 0
v 0 -3.999840259552 0
v -17.9992809295654 -2.99988007545471 0
v -16.9993209838867 -2.99988007545471 0
v -15.999361038208 -2.99988007545471 0
v -14.9994010925293 -2.99988007545471 0
v -13.9994401931763 -2.99988007545471 0
v -12.9994802474976 -2.99988007545471 0
v -11.9995203018188 -2.99988007545471 0
v -10.9995603561401 -2.99988007545471 0
v -9.99960041046143 -2.99988007545471 0
v -8.99964046478271 -2.99988007545471 0
v -7.999680519104 -2.99988007545471 0
v -6.99972009658813 -2.99988007545471 0
v -5.99976015090942 -2.99988007545471 0
v -4.99980020523071 -2.99988007545471 0
v -3.999840259552 -2.99988007545471 0
v -2.99988007545471 -2.99988007545471 0
v -1.999920129776 -2.99988007545471 0
v -0.999960064888 -2.99988007545471 0
v 0 -2.99988007545471 0
v -17.9992809295654 -1.999920129776 0
v -16.9993209838867 -1.999920129776 0
v -15.999361038208 -1.999920129776 0
v -14.9994010925293 -1.999920129776 0
v -13.9994401931763 -1.999920129776 0
v -12.9994802474976 -1.999920129776 0
v -11.9995203018188 -1.999920129776 0
v -10.9995603561401 -1.999920129776 0
v -9.99960041046143 -1.999920129776 0
v -8.99964046478271 -1.999920129776 0
v -7.999680519104 -1.999920129776 0
v -6.99972009658813 -1.999920129776 0
v -5.99976015090942 -1.999920129776 0
v -4.99980020523071 -1.999920129776 0
v -3.999840259552 -1.999920129776 0
v -2.99988007545471 -1.999920129776 0
v -1.999920129776 -1.999920129776 0
v -0.999960064888 -1.999920129776 0
v 0 -1.999920129776 0
v -17.9992809295654 -0.999960064888 0
v -16.9993209838867 -0.999960064888 0
v -15.999361038208 -0.999960064888 0
v -14.9994010925293 -0.999960064888 0
v -13.9994401931763 -0.999960064888 0
v -12.9994802474976 -0.999960064888 0
v -11.9995203018188 -0.999960064888 0
v -10.9995603561401 -0.999960064888 0
v -9.99960041046143 -0.999960064888 0
v -8.99964046478271 -0.999960064888 0
v -7.999680519104 -0.999960064888 0
v -6.99972009658813 -0.999960064888 0
v -5.99976015090942 -0.999960064888 0
v -4.99980020523071 -0.999960064888 0
v -3.999840259552 -0.999960064888 0
v -2.99988007545471 -0.999960064888 0
v -1.999920129776 -0.999960064888 0
v -0.999960064888 -0.999960064888 0
v 0 -0.999960064888 0
v -17.9992809295654 0 0
v -16.9993209838867 0 0
v -15.999361038208 0 0
v -14.9994010925293 0 0
v -13.9994401931763 0 0
v -12.9994802474976 0 0
v -11.9995203018188 0 0
v -10.9995603561401 0 0
v -9.99960041046143 0 0
v -8.99964046478271 0 0
v -7.999680519104 0 0
v -6.99972009658813 0 0
v -5.99976015090942 0 0
v -4.99980020523071 0 0
v -3.999840259552 0 0
v -2.99988007545471 0 0
v -1.999920129776 0 0
v -0.999960064888 0 0
v 0 0 0

# Texture Coorindates (Count = 205)
vt 0.8334554 0.0001220703
vt 0.9998779 0.0001220703
vt 0.9998779 0.1665446
vt 0.8334554 0.1665446
vt 0.1667887 0.0001220703
vt 0.3332113 0.0001220703
vt 0.3332113 0.1665446
vt 0.1667887 0.1665446
vt 0.0001220703 0.0001220703
vt 0.1665446 0.0001220703
vt 0.1665446 0.1665446
vt 0.0001220703 0.1665446
vt 0.5001221 0.0001220703
vt 0.6665446 0.0001220703
vt 0.6665446 0.1665446
vt 0.5001221 0.1665446
vt 0.8334554 0.5001221
vt 0.9998779 0.5001221
vt 0.9998779 0.6665446
vt 0.8334554 0.6665446
vt 0.1667887 0.1667887
vt 0.3332113 0.1667887
vt 0.3332113 0.3332113
vt 0.1667887 0.3332113
vt 0.0001220703 0.1667887
vt 0.1665446 0.1667887
vt 0.1665446 0.3332113
vt 0.0001220703 0.3332113
vt 0.0001220703 0.3334554
vt 0.1665446 0.3334554
vt 0.1665446 0.4998779
vt 0.0001220703 0.4998779
vt 0.8334554 0.3334554
vt 0.9998779 0.3334554
vt 0.9998779 0.4998779
vt 0.8334554 0.4998779
vt 0.6667888 0.6667888
vt 0.6665446 0.5001221
vt 0.4998779 0.4998779
vt 0.5001221 0.6665446
vt 0.8334554 0.6667888
vt 0.9998779 0.6667888
vt 0.9998779 0.8332112
vt 0.8334554 0.8332112
vt 0.1667887 0.3334554
vt 0.3332113 0.3334554
vt 0.3332113 0.4998779
vt 0.1667887 0.4998779
vt 0.0001220703 0.5001221
vt 0.1665446 0.5001221
vt 0.1665446 0.6665446
vt 0.0001220703 0.6665446
vt 0.5001221 0.6667888
vt 0.4998779 0.5001221
vt 0.3334554 0.6665446
vt 0.1667887 0.5001221
vt 0.3332113 0.5001221
vt 0.3332113 0.6665446
vt 0.1667887 0.6665446
vt 0.3334554 0.6667888
vt 0.6667888 0.3334554
vt 0.8332112 0.3334554
vt 0.8332112 0.4998779
vt 0.6667888 0.4998779
vt 0.3334554 0.0001220703
vt 0.4998779 0.0001220703
vt 0.4998779 0.1665446
vt 0.3334554 0.1665446
vt 0.6667888 0.0001220703
vt 0.8332112 0.0001220703
vt 0.8332112 0.1665446
vt 0.6667888 0.1665446
vt 0.5001221 0.3334554
vt 0.6665446 0.3334554
vt 0.6665446 0.4998779
vt 0.5001221 0.4998779
vt 0.1667887 0.6667888
vt 0.3332113 0.6667888
vt 0.3332113 0.8332112
vt 0.1667887 0.8332112
vt 0.3334554 0.1667887
vt 0.4998779 0.1667887
vt 0.4998779 0.3332113
vt 0.3334554 0.3332113
vt 0.3334554 0.5001221
vt 0.3334554 0.8334554
vt 0.0001220703 0.6667888
vt 0.1665446 0.6667888
vt 0.1665446 0.8332112
vt 0.0001220703 0.8332112
vt 0.8334554 0.8334554
vt 0.9998779 0.8334554
vt 0.9998779 0.9998779
vt 0.8334554 0.9998779
vt 0.6667888 0.8334554
vt 0.8332112 0.8334554
vt 0.8332112 0.9998779
vt 0.6667888 0.9998779
vt 0.5001221 0.8334554
vt 0.6665446 0.8334554
vt 0.6665446 0.9998779
vt 0.5001221 0.9998779
vt 0.4998779 0.8334554
vt 0.4998779 0.9998779
vt 0.3334554 0.9998779
vt 0.1667887 0.8334554
vt 0.3332113 0.8334554
vt 0.3332113 0.9998779
vt 0.1667887 0.9998779
vt 0.0001220703 0.8334554
vt 0.1665446 0.8334554
vt 0.1665446 0.9998779
vt 0.0001220703 0.9998779
vt 0.7144078 0.0001220703
vt 0.8570208 0.0001220703
vt 0.8570208 0.2498779
vt 0.7144078 0.2498779
vt 0.5715507 0.0001220703
vt 0.7141637 0.0001220703
vt 0.7141637 0.2498779
vt 0.5715507 0.2498779
vt 0.4286935 0.0001220703
vt 0.5713065 0.0001220703
vt 0.5713065 0.2498779
vt 0.4286935 0.2498779
vt 0.2858364 0.0001220703
vt 0.4284494 0.0001220703
vt 0.4284494 0.2498779
vt 0.2858364 0.2498779
vt 0.1429792 0.0001220703
vt 0.2855922 0.0001220703
vt 0.2855922 0.2498779
vt 0.1429792 0.2498779
vt 0.1427351 0.0001220703
vt 0.1427351 0.2498779
vt 0.0001220703 0.2498779
vt 0.7144078 0.2501221
vt 0.8570208 0.2501221
vt 0.8570208 0.4998779
vt 0.7144078 0.4998779
vt 0.5715507 0.2501221
vt 0.7141637 0.2501221
vt 0.7141637 0.4998779
vt 0.5715507 0.4998779
vt 0.4286935 0.2501221
vt 0.5713065 0.2501221
vt 0.5713065 0.4998779
vt 0.4286935 0.4998779
vt 0.2858364 0.2501221
vt 0.4284494 0.2501221
vt 0.4284494 0.4998779
vt 0.2858364 0.4998779
vt 0.1429792 0.2501221
vt 0.2855922 0.2501221
vt 0.2855922 0.4998779
vt 0.1429792 0.4998779
vt 0.0001220703 0.2501221
vt 0.1427351 0.2501221
vt 0.1427351 0.4998779
vt 0.7144078 0.5001221
vt 0.8570208 0.5001221
vt 0.8570208 0.7498779
vt 0.7144078 0.7498779
vt 0.5715507 0.5001221
vt 0.7141637 0.5001221
vt 0.7141637 0.7498779
vt 0.5715507 0.7498779
vt 0.4286935 0.5001221
vt 0.5713065 0.5001221
vt 0.5713065 0.7498779
vt 0.4286935 0.7498779
vt 0.2858364 0.5001221
vt 0.4284494 0.5001221
vt 0.4284494 0.7498779
vt 0.2858364 0.7498779
vt 0.1429792 0.5001221
vt 0.2855922 0.5001221
vt 0.2855922 0.7498779
vt 0.1429792 0.7498779
vt 0.1427351 0.5001221
vt 0.1427351 0.7498779
vt 0.0001220703 0.7498779
vt 0.7144078 0.7501221
vt 0.8570208 0.7501221
vt 0.8570208 0.9998779
vt 0.7144078 0.9998779
vt 0.5715507 0.7501221
vt 0.7141637 0.7501221
vt 0.7141637 0.9998779
vt 0.5715507 0.9998779
vt 0.4286935 0.7501221
vt 0.5713065 0.7501221
vt 0.5713065 0.9998779
vt 0.4286935 0.9998779
vt 0.2858364 0.7501221
vt 0.4284494 0.7501221
vt 0.4284494 0.9998779
vt 0.2858364 0.9998779
vt 0.1429792 0.7501221
vt 0.2855922 0.7501221
vt 0.2855922 0.9998779
vt 0.1429792 0.9998779
vt 0.0001220703 0.7501221
vt 0.1427351 0.7501221
vt 0.1427351 0.9998779

# Normal
vn 0 0 -1

# Groups (Count = 2)
g mesh_[00]_[01]
f  1/1/1  2/2/1  3/3/1  4/4/1 
f  5/5/1  1/6/1  4/7/1  6/8/1 
f  7/9/1  5/10/1  6/11/1  8/12/1 
f  9/1/1  10/2/1  11/3/1  12/4/1 
f  13/13/1  9/14/1  12/15/1  14/16/1 
f  15/9/1  13/10/1  14/11/1  16/12/1 
f  4/17/1  3/18/1  17/19/1  18/20/1 
f  6/21/1  4/22/1  18/23/1  19/24/1 
f  8/25/1  6/26/1  19/27/1  20/28/1 
f  12/17/1  11/18/1  21/19/1  22/20/1 
f  14/21/1  12/22/1  22/23/1  23/24/1 
f  16/29/1  14/30/1  23/31/1  24/32/1 
f  18/33/1  17/34/1  25/35/1  26/36/1 
f  19/37/1  18/38/1  26/39/1  27/40/1 
f  20/25/1  19/26/1  27/27/1  28/28/1 
f  22/41/1  21/42/1  29/43/1  30/44/1 
f  23/45/1  22/46/1  30/47/1  31/48/1 
f  24/49/1  23/50/1  31/51/1  32/52/1 
f  26/17/1  25/18/1  33/19/1  34/20/1 
f  27/53/1  26/54/1  34/47/1  35/55/1 
f  28/25/1  27/26/1  35/27/1  36/28/1 
f  30/41/1  29/42/1  37/43/1  38/44/1 
f  31/56/1  30/57/1  38/58/1  39/59/1 
f  32/29/1  31/30/1  39/31/1  40/32/1 
f  34/17/1  33/18/1  41/19/1  42/20/1 
f  35/60/1  34/57/1  42/31/1  43/59/1 
f  36/61/1  35/62/1  43/63/1  44/64/1 
f  45/13/1  36/14/1  44/15/1  46/16/1 
f  47/13/1  45/14/1  46/15/1  48/16/1 
f  49/65/1  47/66/1  48/67/1  50/68/1 
f  51/69/1  49/70/1  50/71/1  52/72/1 
f  53/69/1  51/70/1  52/71/1  54/72/1 
f  55/69/1  53/70/1  54/71/1  56/72/1 
f  57/69/1  55/70/1  56/71/1  58/72/1 
f  59/13/1  57/14/1  58/15/1  60/16/1 
f  61/65/1  59/66/1  60/67/1  62/68/1 
f  63/69/1  61/70/1  62/71/1  64/72/1 
f  65/65/1  63/66/1  64/67/1  66/68/1 
f  37/13/1  65/14/1  66/15/1  67/16/1 
f  38/73/1  37/74/1  67/75/1  68/76/1 
f  39/77/1  38/78/1  68/79/1  69/80/1 
f  40/49/1  39/50/1  69/51/1  70/52/1 
f  42/41/1  41/42/1  71/43/1  72/44/1 
f  43/81/1  42/82/1  72/83/1  73/84/1 
f  44/21/1  43/22/1  73/23/1  74/24/1 
f  46/81/1  44/82/1  74/83/1  75/84/1 
f  48/81/1  46/82/1  75/83/1  76/84/1 
f  50/81/1  48/82/1  76/83/1  77/84/1 
f  52/81/1  50/82/1  77/83/1  78/84/1 
f  54/81/1  52/82/1  78/83/1  79/84/1 
f  56/81/1  54/82/1  79/83/1  80/84/1 
f  58/81/1  56/82/1  80/83/1  81/84/1 
f  60/85/1  58/46/1  81/27/1  82/48/1 
f  62/60/1  60/57/1  82/31/1  83/59/1 
f  64/86/1  62/78/1  83/51/1  84/80/1 
f  66/81/1  64/82/1  84/83/1  85/84/1 
f  67/21/1  66/22/1  85/23/1  86/24/1 
f  68/21/1  67/22/1  86/23/1  87/24/1 
f  69/81/1  68/82/1  87/83/1  88/84/1 
f  70/87/1  69/88/1  88/89/1  89/90/1 
f  72/91/1  71/92/1  90/93/1  91/94/1 
f  73/95/1  72/96/1  91/97/1  92/98/1 
f  74/95/1  73/96/1  92/97/1  93/98/1 
f  75/99/1  74/100/1  93/101/1  94/102/1 
f  76/86/1  75/103/1  94/104/1  95/105/1 
f  77/106/1  76/107/1  95/108/1  96/109/1 
f  78/99/1  77/100/1  96/101/1  97/102/1 
f  79/86/1  78/103/1  97/104/1  98/105/1 
f  80/99/1  79/100/1  98/101/1  99/102/1 
f  81/86/1  80/103/1  99/104/1  100/105/1 
f  82/99/1  81/100/1  100/101/1  101/102/1 
f  83/99/1  82/100/1  101/101/1  102/102/1 
f  84/86/1  83/103/1  102/104/1  103/105/1 
f  85/106/1  84/107/1  103/108/1  104/109/1 
f  86/99/1  85/100/1  104/101/1  105/102/1 
f  87/86/1  86/103/1  105/104/1  106/105/1 
f  88/99/1  87/100/1  106/101/1  107/102/1 
f  89/110/1  88/111/1  107/112/1  108/113/1 
g mesh_[00]_[00]
f  91/114/1  90/115/1  109/116/1  110/117/1 
f  92/118/1  91/119/1  110/120/1  111/121/1 
f  93/122/1  92/123/1  111/124/1  112/125/1 
f  94/126/1  93/127/1  112/128/1  113/129/1 
f  95/130/1  94/131/1  113/132/1  114/133/1 
f  96/9/1  95/134/1  114/135/1  115/136/1 
f  97/114/1  96/115/1  115/116/1  116/117/1 
f  98/126/1  97/127/1  116/128/1  117/129/1 
f  99/130/1  98/131/1  117/132/1  118/133/1 
f  100/126/1  99/127/1  118/128/1  119/129/1 
f  101/130/1  100/131/1  119/132/1  120/133/1 
f  102/9/1  101/134/1  120/135/1  121/136/1 
f  103/114/1  102/115/1  121/116/1  122/117/1 
f  104/118/1  103/119/1  122/120/1  123/121/1 
f  105/122/1  104/123/1  123/124/1  124/125/1 
f  106/126/1  105/127/1  124/128/1  125/129/1 
f  107/130/1  106/131/1  125/132/1  126/133/1 
f  108/126/1  107/127/1  126/128/1  127/129/1 
f  110/137/1  109/138/1  128/139/1  129/140/1 
f  111/141/1  110/142/1  129/143/1  130/144/1 
f  112/145/1  111/146/1  130/147/1  131/148/1 
f  113/149/1  112/150/1  131/151/1  132/152/1 
f  114/153/1  113/154/1  132/155/1  133/156/1 
f  115/157/1  114/158/1  133/159/1  134/32/1 
f  116/137/1  115/138/1  134/139/1  135/140/1 
f  117/149/1  116/150/1  135/151/1  136/152/1 
f  118/153/1  117/154/1  136/155/1  137/156/1 
f  119/149/1  118/150/1  137/151/1  138/152/1 
f  120/153/1  119/154/1  138/155/1  139/156/1 
f  121/157/1  120/158/1  139/159/1  140/32/1 
f  122/137/1  121/138/1  140/139/1  141/140/1 
f  123/141/1  122/142/1  141/143/1  142/144/1 
f  124/145/1  123/146/1  142/147/1  143/148/1 
f  125/149/1  124/150/1  143/151/1  144/152/1 
f  126/153/1  125/154/1  144/155/1  145/156/1 
f  127/149/1  126/150/1  145/151/1  146/152/1 
f  129/160/1  128/161/1  147/162/1  148/163/1 
f  130/164/1  129/165/1  148/166/1  149/167/1 
f  131/168/1  130/169/1  149/170/1  150/171/1 
f  132/172/1  131/173/1  150/174/1  151/175/1 
f  133/176/1  132/177/1  151/178/1  152/179/1 
f  134/49/1  133/180/1  152/181/1  153/182/1 
f  135/160/1  134/161/1  153/162/1  154/163/1 
f  136/172/1  135/173/1  154/174/1  155/175/1 
f  137/176/1  136/177/1  155/178/1  156/179/1 
f  138/172/1  137/173/1  156/174/1  157/175/1 
f  139/176/1  138/177/1  157/178/1  158/179/1 
f  140/49/1  139/180/1  158/181/1  159/182/1 
f  141/160/1  140/161/1  159/162/1  160/163/1 
f  142/164/1  141/165/1  160/166/1  161/167/1 
f  143/168/1  142/169/1  161/170/1  162/171/1 
f  144/172/1  143/173/1  162/174/1  163/175/1 
f  145/176/1  144/177/1  163/178/1  164/179/1 
f  146/172/1  145/173/1  164/174/1  165/175/1 
f  148/183/1  147/184/1  166/185/1  167/186/1 
f  149/187/1  148/188/1  167/189/1  168/190/1 
f  150/191/1  149/192/1  168/193/1  169/194/1 
f  151/195/1  150/196/1  169/197/1  170/198/1 
f  152/199/1  151/200/1  170/201/1  171/202/1 
f  153/203/1  152/204/1  171/205/1  172/113/1 
f  154/183/1  153/184/1  172/185/1  173/186/1 
f  155/195/1  154/196/1  173/197/1  174/198/1 
f  156/199/1  155/200/1  174/201/1  175/202/1 
f  157/195/1  156/196/1  175/197/1  176/198/1 
f  158/199/1  157/200/1  176/201/1  177/202/1 
f  159/203/1  158/204/1  177/205/1  178/113/1 
f  160/183/1  159/184/1  178/185/1  179/186/1 
f  161/187/1  160/188/1  179/189/1  180/190/1 
f  162/191/1  161/192/1  180/193/1  181/194/1 
f  163/195/1  162/196/1  181/197/1  182/198/1 
f  164/199/1  163/200/1  182/201/1  183/202/1 
f  165/195/1  164/196/1  183/197/1  184/198/1 
